# xmcd
#
# Track frame offsets:
#	151
#	15026
#	28563
#	46224
#	66641
#	79430
#	91229
#	104790
#	118481
#	133372
#
# Disc length: 2014 seconds
#
# Revision: 0
# Processed by: cddbd v1.5PL3 Copyright (c) Steve Scherf et al.
# Submitted via: dBpowerAMP V4.0
#
DISCID=8e07dc0a
DTITLE=Percy Sledge - When A Man Loves A Woman
DYEAR=1900
DGENRE=Rhythmic Soul
TTITLE0=I'll Be Your Everything
TTITLE1=When A Man Loves A Woman
TTITLE2=Try A Little Tenderness
TTITLE3=You Send Me
TTITLE4=Behind Closed Doors
TTITLE5=(Sittin' On) The Dock of the Bay
TTITLE6=I've Been Loving You Way Too Long
TTITLE7=Take Time To Know Her
TTITLE8=Warm and Tender Love
TTITLE9=If Lovin' You Is Wrong
EXTD=
EXTT0=
EXTT1=
EXTT2=
EXTT3=
EXTT4=
EXTT5=
EXTT6=
EXTT7=
EXTT8=
EXTT9=
PLAYORDER=
